<mxfile host="app.diagrams.net" agent="Mozilla/5.0 (Windows NT 10.0; Win64; x64) AppleWebKit/537.36 (KHTML, like Gecko) Chrome/130.0.0.0 Safari/537.36" version="25.0.3">
  <diagram name="Trang-1" id="fp9f42GZ24jwWJLXAwTc">
    <mxGraphModel dx="1006" dy="531" grid="1" gridSize="10" guides="1" tooltips="1" connect="1" arrows="1" fold="1" page="1" pageScale="1" pageWidth="827" pageHeight="1169" math="0" shadow="0">
      <root>
        <mxCell id="0" />
        <mxCell id="1" parent="0" />
        <mxCell id="QmprcsH90IbUg4YGs7Es-3" value="" style="edgeStyle=orthogonalEdgeStyle;rounded=0;orthogonalLoop=1;jettySize=auto;html=1;entryX=0.5;entryY=0;entryDx=0;entryDy=0;" edge="1" parent="1" source="QmprcsH90IbUg4YGs7Es-1" target="QmprcsH90IbUg4YGs7Es-4">
          <mxGeometry relative="1" as="geometry">
            <mxPoint x="400" y="220" as="targetPoint" />
          </mxGeometry>
        </mxCell>
        <mxCell id="QmprcsH90IbUg4YGs7Es-1" value="Start" style="ellipse;whiteSpace=wrap;html=1;" vertex="1" parent="1">
          <mxGeometry x="340" y="50" width="120" height="80" as="geometry" />
        </mxCell>
        <mxCell id="QmprcsH90IbUg4YGs7Es-8" style="edgeStyle=orthogonalEdgeStyle;rounded=0;orthogonalLoop=1;jettySize=auto;html=1;exitX=0.5;exitY=1;exitDx=0;exitDy=0;entryX=0.5;entryY=0;entryDx=0;entryDy=0;" edge="1" parent="1" source="QmprcsH90IbUg4YGs7Es-4" target="QmprcsH90IbUg4YGs7Es-5">
          <mxGeometry relative="1" as="geometry" />
        </mxCell>
        <mxCell id="QmprcsH90IbUg4YGs7Es-4" value="Nhập Số N bạn muốn kiểm tra" style="shape=parallelogram;perimeter=parallelogramPerimeter;whiteSpace=wrap;html=1;fixedSize=1;" vertex="1" parent="1">
          <mxGeometry x="325" y="220" width="150" height="70" as="geometry" />
        </mxCell>
        <mxCell id="QmprcsH90IbUg4YGs7Es-7" value="" style="edgeStyle=orthogonalEdgeStyle;rounded=0;orthogonalLoop=1;jettySize=auto;html=1;" edge="1" parent="1" source="QmprcsH90IbUg4YGs7Es-5" target="QmprcsH90IbUg4YGs7Es-6">
          <mxGeometry relative="1" as="geometry" />
        </mxCell>
        <mxCell id="QmprcsH90IbUg4YGs7Es-5" value="Dùng vòng lặp for" style="rounded=0;whiteSpace=wrap;html=1;" vertex="1" parent="1">
          <mxGeometry x="340" y="350" width="120" height="60" as="geometry" />
        </mxCell>
        <mxCell id="QmprcsH90IbUg4YGs7Es-10" value="" style="edgeStyle=orthogonalEdgeStyle;rounded=0;orthogonalLoop=1;jettySize=auto;html=1;" edge="1" parent="1" source="QmprcsH90IbUg4YGs7Es-6" target="QmprcsH90IbUg4YGs7Es-9">
          <mxGeometry relative="1" as="geometry" />
        </mxCell>
        <mxCell id="QmprcsH90IbUg4YGs7Es-6" value="Khai báo biến i=2" style="rounded=0;whiteSpace=wrap;html=1;" vertex="1" parent="1">
          <mxGeometry x="340" y="490" width="120" height="60" as="geometry" />
        </mxCell>
        <mxCell id="QmprcsH90IbUg4YGs7Es-12" value="" style="edgeStyle=orthogonalEdgeStyle;rounded=0;orthogonalLoop=1;jettySize=auto;html=1;" edge="1" parent="1" source="QmprcsH90IbUg4YGs7Es-9" target="QmprcsH90IbUg4YGs7Es-11">
          <mxGeometry relative="1" as="geometry" />
        </mxCell>
        <mxCell id="QmprcsH90IbUg4YGs7Es-24" value="" style="edgeStyle=orthogonalEdgeStyle;rounded=0;orthogonalLoop=1;jettySize=auto;html=1;" edge="1" parent="1" source="QmprcsH90IbUg4YGs7Es-9" target="QmprcsH90IbUg4YGs7Es-23">
          <mxGeometry relative="1" as="geometry" />
        </mxCell>
        <mxCell id="QmprcsH90IbUg4YGs7Es-9" value="Nếu i&amp;lt;=n/2" style="rhombus;whiteSpace=wrap;html=1;rounded=0;" vertex="1" parent="1">
          <mxGeometry x="360" y="620" width="80" height="80" as="geometry" />
        </mxCell>
        <mxCell id="QmprcsH90IbUg4YGs7Es-14" value="" style="edgeStyle=orthogonalEdgeStyle;rounded=0;orthogonalLoop=1;jettySize=auto;html=1;" edge="1" parent="1" source="QmprcsH90IbUg4YGs7Es-11" target="QmprcsH90IbUg4YGs7Es-13">
          <mxGeometry relative="1" as="geometry" />
        </mxCell>
        <mxCell id="QmprcsH90IbUg4YGs7Es-16" value="" style="edgeStyle=orthogonalEdgeStyle;rounded=0;orthogonalLoop=1;jettySize=auto;html=1;entryX=0;entryY=0.5;entryDx=0;entryDy=0;" edge="1" parent="1" source="QmprcsH90IbUg4YGs7Es-11" target="QmprcsH90IbUg4YGs7Es-17">
          <mxGeometry relative="1" as="geometry">
            <mxPoint x="550" y="820" as="targetPoint" />
          </mxGeometry>
        </mxCell>
        <mxCell id="QmprcsH90IbUg4YGs7Es-11" value="Nếu n%i == 0" style="rhombus;whiteSpace=wrap;html=1;rounded=0;" vertex="1" parent="1">
          <mxGeometry x="360" y="780" width="80" height="80" as="geometry" />
        </mxCell>
        <mxCell id="QmprcsH90IbUg4YGs7Es-25" style="edgeStyle=orthogonalEdgeStyle;rounded=0;orthogonalLoop=1;jettySize=auto;html=1;exitX=0.5;exitY=1;exitDx=0;exitDy=0;entryX=0.5;entryY=0;entryDx=0;entryDy=0;" edge="1" parent="1" source="QmprcsH90IbUg4YGs7Es-13" target="QmprcsH90IbUg4YGs7Es-18">
          <mxGeometry relative="1" as="geometry" />
        </mxCell>
        <mxCell id="QmprcsH90IbUg4YGs7Es-13" value="N không phải số nguyên tố" style="whiteSpace=wrap;html=1;rounded=0;" vertex="1" parent="1">
          <mxGeometry x="340" y="950" width="120" height="60" as="geometry" />
        </mxCell>
        <mxCell id="QmprcsH90IbUg4YGs7Es-19" style="edgeStyle=orthogonalEdgeStyle;rounded=0;orthogonalLoop=1;jettySize=auto;html=1;exitX=0.5;exitY=0;exitDx=0;exitDy=0;entryX=1;entryY=0.5;entryDx=0;entryDy=0;" edge="1" parent="1" source="QmprcsH90IbUg4YGs7Es-17" target="QmprcsH90IbUg4YGs7Es-9">
          <mxGeometry relative="1" as="geometry" />
        </mxCell>
        <mxCell id="QmprcsH90IbUg4YGs7Es-17" value="Tăng i++" style="rounded=0;whiteSpace=wrap;html=1;" vertex="1" parent="1">
          <mxGeometry x="560" y="790" width="120" height="60" as="geometry" />
        </mxCell>
        <mxCell id="QmprcsH90IbUg4YGs7Es-29" style="edgeStyle=orthogonalEdgeStyle;rounded=0;orthogonalLoop=1;jettySize=auto;html=1;exitX=0.5;exitY=1;exitDx=0;exitDy=0;entryX=0.5;entryY=0;entryDx=0;entryDy=0;" edge="1" parent="1" source="QmprcsH90IbUg4YGs7Es-18" target="QmprcsH90IbUg4YGs7Es-28">
          <mxGeometry relative="1" as="geometry" />
        </mxCell>
        <mxCell id="QmprcsH90IbUg4YGs7Es-18" value="Hiển Thị Kết Quả" style="shape=parallelogram;perimeter=parallelogramPerimeter;whiteSpace=wrap;html=1;fixedSize=1;" vertex="1" parent="1">
          <mxGeometry x="340" y="1140" width="120" height="60" as="geometry" />
        </mxCell>
        <mxCell id="QmprcsH90IbUg4YGs7Es-20" value="True" style="text;html=1;align=center;verticalAlign=middle;resizable=0;points=[];autosize=1;strokeColor=none;fillColor=none;" vertex="1" parent="1">
          <mxGeometry x="395" y="898" width="50" height="30" as="geometry" />
        </mxCell>
        <mxCell id="QmprcsH90IbUg4YGs7Es-21" value="False" style="text;html=1;align=center;verticalAlign=middle;resizable=0;points=[];autosize=1;strokeColor=none;fillColor=none;" vertex="1" parent="1">
          <mxGeometry x="460" y="790" width="50" height="30" as="geometry" />
        </mxCell>
        <mxCell id="QmprcsH90IbUg4YGs7Es-22" value="True" style="text;html=1;align=center;verticalAlign=middle;resizable=0;points=[];autosize=1;strokeColor=none;fillColor=none;" vertex="1" parent="1">
          <mxGeometry x="395" y="718" width="50" height="30" as="geometry" />
        </mxCell>
        <mxCell id="QmprcsH90IbUg4YGs7Es-26" style="edgeStyle=orthogonalEdgeStyle;rounded=0;orthogonalLoop=1;jettySize=auto;html=1;exitX=0.5;exitY=1;exitDx=0;exitDy=0;entryX=0;entryY=0.5;entryDx=0;entryDy=0;" edge="1" parent="1" source="QmprcsH90IbUg4YGs7Es-23" target="QmprcsH90IbUg4YGs7Es-18">
          <mxGeometry relative="1" as="geometry" />
        </mxCell>
        <mxCell id="QmprcsH90IbUg4YGs7Es-23" value="N là số nguyên tố" style="whiteSpace=wrap;html=1;rounded=0;" vertex="1" parent="1">
          <mxGeometry x="60" y="1080" width="120" height="60" as="geometry" />
        </mxCell>
        <mxCell id="QmprcsH90IbUg4YGs7Es-27" value="False" style="text;html=1;align=center;verticalAlign=middle;resizable=0;points=[];autosize=1;strokeColor=none;fillColor=none;" vertex="1" parent="1">
          <mxGeometry x="290" y="630" width="50" height="30" as="geometry" />
        </mxCell>
        <mxCell id="QmprcsH90IbUg4YGs7Es-28" value="End" style="ellipse;whiteSpace=wrap;html=1;" vertex="1" parent="1">
          <mxGeometry x="340" y="1300" width="120" height="80" as="geometry" />
        </mxCell>
      </root>
    </mxGraphModel>
  </diagram>
</mxfile>
